<?xml version="1.0" encoding="utf-8"?>
<!-- Generator: Adobe Illustrator 22.0.0, SVG Export Plug-In . SVG Version: 6.00 Build 0)  -->
<svg version="1.1" id="Layer_1" xmlns="http://www.w3.org/2000/svg" xmlns:xlink="http://www.w3.org/1999/xlink" x="0px" y="0px"
	 width="160" height="36" viewBox="0 0 151 33.1" style="enable-background:new 0 0 151 33.1;" xml:space="preserve">
<style type="text/css">
	.st0{fill:#1D1D1B;}
</style>
<title>Interacoustics_black_CMYK</title>
<path class="st0" d="M13.8,23.2c-1.8,0-3.4,0.6-4.2,2l0,0v-1.7H6.1V33H10v-4c0-2,0.8-3,2.4-3c1.1,0,1.8,0.6,1.8,2.4V33h3.9v-6
	C18.2,25,16.9,23.2,13.8,23.2z M27.1,30.9c-1.2,0-1.6-0.6-1.6-1.7v-3.5h2.8v-2.3h-2.8v-3.1L21.6,22v1.5h-2.3v2.3h2.3v3.9
	c0,2.3,0.9,3.6,4.4,3.6c1,0,1.7-0.1,2.5-0.2L28.4,31C27.9,30.8,27.4,30.9,27.1,30.9z M35.4,23.2c-3.5,0-6.1,1.8-6.1,5s2.9,5,6.6,5
	c1.5,0,2.9-0.2,4.2-0.6v-2.3C39,30.8,37.8,31,36.6,31c-1.9,0-3.1-0.5-3.3-1.8h7.9v-0.6C41.2,25.7,39.7,23.2,35.4,23.2L35.4,23.2z
	 M33.3,27.2c0.1-1.1,0.8-2,2.2-2c1.6,0,2.2,0.9,2.2,2H33.3z M46.4,25.1L46.4,25.1v-1.7h-3.6v9.5h3.9v-4c0-1.9,1-3,2.9-3
	c0.5,0,0.9,0,1.3,0.1l0.2-2.7c-0.4-0.1-0.9-0.1-1.3-0.1C48.1,23.2,47.1,23.9,46.4,25.1L46.4,25.1z M62.7,27.1c0-2.9-2.5-3.9-5.4-3.9
	c-1.7,0-3.1,0.2-4.5,0.7l0.1,2.2c1.1-0.5,2.4-0.7,3.6-0.7c1.4,0,2.6,0.3,2.6,1.6c-0.6-0.1-1.2-0.1-1.8-0.1c-2.1,0-5.9,0.3-5.9,3.2
	c0,2.1,2,3,4.3,3c1.6,0,2.7-0.5,3.6-1.7l0,0c0,0.5,0.1,1,0.1,1.5H63c-0.2-0.7-0.2-1.5-0.2-2.2L62.7,27.1z M56.6,30.9
	c-0.9,0-1.6-0.4-1.6-1c0-0.9,1-1.3,2.4-1.3c0.6,0,1.2,0,1.7,0.1C59,29.8,58.1,30.9,56.6,30.9z M71.3,30.7c-1.7,0-3.2-1-3.2-2.5
	c0-1.6,1.3-2.6,3-2.6c0.9,0,1.7,0.2,2.4,0.5l0.3-2.4c-0.9-0.4-1.9-0.5-3.1-0.5c-3.8,0-6.6,1.8-6.6,5c0,3.1,2.9,5,6.6,5
	c1.1,0,2.2-0.1,3.2-0.4l-0.1-2.4C73.1,30.5,72.2,30.7,71.3,30.7z M81.4,23.2c-3.8,0-6.6,1.8-6.6,5c0,3.1,2.9,5,6.6,5s6.6-1.8,6.6-5
	C88.1,25,85.2,23.2,81.4,23.2L81.4,23.2z M81.4,30.8c-1.8,0-2.6-1.3-2.6-2.7c0-1.4,0.7-2.7,2.6-2.7s2.6,1.3,2.6,2.7
	S83.3,30.8,81.4,30.8z M106.9,26c0-0.5,1-0.7,1.8-0.7c1,0,2.2,0.2,3.1,0.6l0.3-2.3c-1.3-0.4-2.6-0.5-4-0.5c-2.3,0-4.9,0.9-4.9,3.1
	c0,3.4,5.6,2.3,5.6,3.9c0,0.7-0.8,0.8-1.6,0.8c-1.3,0-2.5-0.2-3.7-0.7l-0.2,2.4c1.2,0.3,2.4,0.5,4.1,0.5c2.6,0,5.3-0.6,5.3-3.2
	C112.7,26.3,106.9,27.5,106.9,26L106.9,26z M121.5,30.9c-1.2,0-1.6-0.6-1.6-1.7v-3.5h2.7v-2.3h-2.8v-3.1l-3.9,1.7v1.5h-2.3v2.3h2.3
	v3.9c0,2.3,0.9,3.6,4.4,3.6c1,0,1.7-0.1,2.5-0.2l-0.1-2.1C122.3,30.8,121.9,30.9,121.5,30.9L121.5,30.9z M137.4,30.7
	c-1.7,0-3.2-1-3.2-2.5c0-1.6,1.3-2.6,3-2.6c0.9,0,1.7,0.2,2.4,0.5l0.3-2.4c-0.9-0.4-1.9-0.5-3.1-0.5c-3.8,0-6.6,1.8-6.6,5
	c0,3.1,2.9,5,6.6,5c1.1,0,2.2-0.1,3.2-0.4l-0.1-2.4C139.2,30.5,138.3,30.7,137.4,30.7L137.4,30.7z M145.1,26c0-0.5,1-0.7,1.8-0.7
	c1,0,2.2,0.2,3.1,0.6l0.3-2.3c-1.3-0.4-2.6-0.5-4-0.5c-2.3,0-4.8,0.9-4.8,3.1c0,3.4,5.6,2.3,5.6,3.9c0,0.7-0.8,0.8-1.6,0.8
	c-1.3,0-2.5-0.2-3.7-0.7l-0.2,2.4c1.2,0.3,2.4,0.5,4.1,0.5c2.6,0,5.3-0.6,5.3-3.2C151,26.3,145.1,27.5,145.1,26L145.1,26z
	 M97.5,27.4c0,2-0.8,3-2.4,3c-1.1,0-1.8-0.6-1.8-2.4v-4.6h-3.9v5.9c0,2,1.2,3.8,4.3,3.8c1.8,0,3.4-0.6,4.2-2l0,0v1.7H98l3.5-1.5v-8
	h-3.9L97.5,27.4z M0,21.9v11h4.1V20.2l0,0L0,21.9z M124.8,32.9h3.9v-9.5h-3.9C124.8,23.4,124.8,32.9,124.8,32.9z"/>
<path class="st0" d="M62.4,8c0.7,0,1.1-0.2,1.2-0.7c0.5-2.2,1.9-4.2,4.1-5.6C69.4,0.5,69.4,0,69.4,0c-6.1,1.2-10.6,4.3-11.2,8H62.4
	L62.4,8z M68.2,16.2c-0.2-0.1-3.9-2-4.6-6.3c-0.1-0.7-1.1-0.7-1.1-0.7h-4.3c0.4,3.8,4.9,7,11.2,8.3C69.3,17.5,69.3,16.8,68.2,16.2
	L68.2,16.2z M83.3,1.6C85.4,3,86.9,5,87.4,7.2C87.5,7.8,87.9,8,88.5,8l0,0h4.3c-0.6-3.7-5-6.7-11.2-8C81.6,0,81.6,0.5,83.3,1.6z
	 M88.6,9.3c0,0-1-0.1-1.1,0.7c-0.7,4.3-4.4,6.2-4.6,6.3c-1.1,0.6-1.2,1.3-1.2,1.3c6.3-1.3,10.8-4.5,11.2-8.3
	C92.9,9.3,88.6,9.3,88.6,9.3z M68,8h15c0.4,0,1.2-0.2,1-1.4c0-0.1-0.7-4-4.5-6.3c-1,0.3-2.4,0.5-3.9,0.5c-1.6,0-2.9-0.2-4-0.6
	c-2.3,1.2-3.9,3.5-4.5,6.3C66.8,7.8,67.6,8,68,8L68,8z M82.9,9.3H68c-0.4,0-1.2,0.2-1,1.4c0.5,2.7,2.2,5,4.4,6.3
	c1.1-0.4,2.4-0.6,4.1-0.6s3,0.2,4.1,0.6c3.9-2.4,4.4-6.3,4.4-6.3C84.1,9.5,83.3,9.3,82.9,9.3L82.9,9.3z"/>
</svg>
